<svg width="34" height="27" viewBox="0 0 34 27" fill="none" xmlns="http://www.w3.org/2000/svg">
<path d="M32.3579 5.24208C32.7746 4.76999 33.0051 4.13769 32.9999 3.48138C32.9947 2.82507 32.7541 2.19725 32.33 1.73315C31.9059 1.26905 31.3322 1.0058 30.7324 1.00009C30.1327 0.994391 29.5549 1.24669 29.1234 1.70266L12.4251 19.9755L4.87656 11.7152C4.44514 11.2592 3.86733 11.0069 3.26757 11.0126C2.66781 11.0183 2.09409 11.2816 1.66998 11.7457C1.24587 12.2098 1.0053 12.8376 1.00009 13.4939C0.994875 14.1502 1.22544 14.7825 1.64211 15.2546L10.7919 25.2671C11.2208 25.7364 11.8026 26 12.4091 26C13.0157 26 13.5974 25.7364 14.0263 25.2671L32.3259 5.24208H32.3579Z" fill="#2B2B2B" stroke="#2B2B2B"/>
</svg>
