<svg width="26" height="25" viewBox="0 0 26 25" fill="none" xmlns="http://www.w3.org/2000/svg">
<circle cx="13" cy="12.5" r="10" fill="#D5D5D5"/>
<path d="M16.8395 11.0181C16.9436 10.9048 17.0013 10.753 17 10.5955C16.9987 10.438 16.9385 10.2873 16.8325 10.176C16.7265 10.0646 16.583 10.0014 16.4331 10C16.2832 9.99865 16.1387 10.0592 16.0309 10.1686L11.8563 14.5541L9.96914 12.5716C9.86129 12.4622 9.71683 12.4017 9.56689 12.403C9.41695 12.4044 9.27352 12.4676 9.16749 12.579C9.06147 12.6903 9.00132 12.841 9.00002 12.9985C8.99872 13.1561 9.05636 13.3078 9.16053 13.4211L11.448 15.8241C11.5552 15.9367 11.7006 16 11.8523 16C12.0039 16 12.1493 15.9367 12.2566 15.8241L16.8315 11.0181H16.8395Z" fill="#2B2B2B" stroke="#2B2B2B"/>
<circle cx="13" cy="12.5" r="11.75" transform="rotate(180 13 12.5)" stroke="#D5D5D5" stroke-width="1.5"/>
</svg>
