<svg width="29" height="33" viewBox="0 0 29 33" fill="none" xmlns="http://www.w3.org/2000/svg">
<path d="M2.07143 29.9063C2.07143 30.7268 2.39879 31.5137 2.98149 32.0939C3.56419 32.6741 4.35451 33 5.17857 33H23.8214C24.6455 33 25.4358 32.6741 26.0185 32.0939C26.6012 31.5137 26.9286 30.7268 26.9286 29.9063V8.25001H2.07143V29.9063ZM19.6786 13.4063C19.6786 13.1328 19.7877 12.8705 19.9819 12.6771C20.1762 12.4837 20.4396 12.375 20.7143 12.375C20.989 12.375 21.2524 12.4837 21.4466 12.6771C21.6409 12.8705 21.75 13.1328 21.75 13.4063V27.8438C21.75 28.1173 21.6409 28.3796 21.4466 28.573C21.2524 28.7664 20.989 28.875 20.7143 28.875C20.4396 28.875 20.1762 28.7664 19.9819 28.573C19.7877 28.3796 19.6786 28.1173 19.6786 27.8438V13.4063ZM13.4643 13.4063C13.4643 13.1328 13.5734 12.8705 13.7676 12.6771C13.9619 12.4837 14.2253 12.375 14.5 12.375C14.7747 12.375 15.0381 12.4837 15.2324 12.6771C15.4266 12.8705 15.5357 13.1328 15.5357 13.4063V27.8438C15.5357 28.1173 15.4266 28.3796 15.2324 28.573C15.0381 28.7664 14.7747 28.875 14.5 28.875C14.2253 28.875 13.9619 28.7664 13.7676 28.573C13.5734 28.3796 13.4643 28.1173 13.4643 27.8438V13.4063ZM7.25 13.4063C7.25 13.1328 7.35912 12.8705 7.55335 12.6771C7.74759 12.4837 8.01103 12.375 8.28571 12.375C8.5604 12.375 8.82384 12.4837 9.01807 12.6771C9.21231 12.8705 9.32143 13.1328 9.32143 13.4063V27.8438C9.32143 28.1173 9.21231 28.3796 9.01807 28.573C8.82384 28.7664 8.5604 28.875 8.28571 28.875C8.01103 28.875 7.74759 28.7664 7.55335 28.573C7.35912 28.3796 7.25 28.1173 7.25 27.8438V13.4063ZM27.9643 2.06251H20.1964L19.5879 0.857238C19.4591 0.599563 19.2605 0.382813 19.0146 0.231371C18.7688 0.0799295 18.4853 -0.000195162 18.1962 1.13004e-05H10.7973C10.5089 -0.00109282 10.2259 0.0787331 9.98092 0.230343C9.73592 0.381954 9.53877 0.599216 9.41205 0.857238L8.80357 2.06251H1.03571C0.761026 2.06251 0.497588 2.17116 0.303354 2.36456C0.10912 2.55795 0 2.82026 0 3.09376L0 5.15626C0 5.42977 0.10912 5.69207 0.303354 5.88547C0.497588 6.07886 0.761026 6.18751 1.03571 6.18751H27.9643C28.239 6.18751 28.5024 6.07886 28.6966 5.88547C28.8909 5.69207 29 5.42977 29 5.15626V3.09376C29 2.82026 28.8909 2.55795 28.6966 2.36456C28.5024 2.17116 28.239 2.06251 27.9643 2.06251Z" fill="#2B2B2B"/>
</svg>
